<svg height="1502" width="720" xmlns="http://www.w3.org/2000/svg">
<rect height="1502" fill="#555" width="720"></rect>
<text fill="#7f7" font-family="Courier New" font-size="12" xml:space="preserve">
<tspan x="10" y="26">25 megabytes installed</tspan>
<tspan x="10" y="42"></tspan>
<tspan x="10" y="58">node_modules</tspan>
<tspan x="10" y="74">└─┬ steam-user@3.19.1 </tspan>
<tspan x="10" y="90">  ├── @doctormckay/steam-crypto@1.2.0 </tspan>
<tspan x="10" y="106">  ├── adm-zip@0.4.7 </tspan>
<tspan x="10" y="122">  ├── appdirectory@0.1.0 </tspan>
<tspan x="10" y="138">  ├─┬ async@2.3.0 </tspan>
<tspan x="10" y="154">  │ └── lodash@4.17.4 </tspan>
<tspan x="10" y="170">  ├─┬ binarykvparser@2.1.4 </tspan>
<tspan x="10" y="186">  │ └── long@3.2.0 </tspan>
<tspan x="10" y="202">  ├── buffer-crc32@0.2.13 </tspan>
<tspan x="10" y="218">  ├─┬ bytebuffer@5.0.1 </tspan>
<tspan x="10" y="234">  │ └── long@3.2.0 </tspan>
<tspan x="10" y="250">  ├─┬ file-manager@1.0.1 </tspan>
<tspan x="10" y="266">  │ └── async@1.5.2 </tspan>
<tspan x="10" y="282">  ├── lzma@2.3.2 </tspan>
<tspan x="10" y="298">  ├─┬ protobufjs@5.0.2 </tspan>
<tspan x="10" y="314">  │ ├─┬ ascli@1.0.1 </tspan>
<tspan x="10" y="330">  │ │ ├── colour@0.7.1 </tspan>
<tspan x="10" y="346">  │ │ └── optjs@3.2.2 </tspan>
<tspan x="10" y="362">  │ ├─┬ glob@7.1.1 </tspan>
<tspan x="10" y="378">  │ │ ├── fs.realpath@1.0.0 </tspan>
<tspan x="10" y="394">  │ │ ├─┬ inflight@1.0.6 </tspan>
<tspan x="10" y="410">  │ │ │ └── wrappy@1.0.2 </tspan>
<tspan x="10" y="426">  │ │ ├── inherits@2.0.3 </tspan>
<tspan x="10" y="442">  │ │ ├─┬ minimatch@3.0.3 </tspan>
<tspan x="10" y="458">  │ │ │ └─┬ brace-expansion@1.1.7 </tspan>
<tspan x="10" y="474">  │ │ │   ├── balanced-match@0.4.2 </tspan>
<tspan x="10" y="490">  │ │ │   └── concat-map@0.0.1 </tspan>
<tspan x="10" y="506">  │ │ ├── once@1.4.0 </tspan>
<tspan x="10" y="522">  │ │ └── path-is-absolute@1.0.1 </tspan>
<tspan x="10" y="538">  │ └─┬ yargs@3.32.0 </tspan>
<tspan x="10" y="554">  │   ├── camelcase@2.1.1 </tspan>
<tspan x="10" y="570">  │   ├─┬ cliui@3.2.0 </tspan>
<tspan x="10" y="586">  │   │ ├─┬ strip-ansi@3.0.1 </tspan>
<tspan x="10" y="602">  │   │ │ └── ansi-regex@2.1.1 </tspan>
<tspan x="10" y="618">  │   │ └── wrap-ansi@2.1.0 </tspan>
<tspan x="10" y="634">  │   ├── decamelize@1.2.0 </tspan>
<tspan x="10" y="650">  │   ├─┬ os-locale@1.4.0 </tspan>
<tspan x="10" y="666">  │   │ └─┬ lcid@1.0.0 </tspan>
<tspan x="10" y="682">  │   │   └── invert-kv@1.0.0 </tspan>
<tspan x="10" y="698">  │   ├─┬ string-width@1.0.2 </tspan>
<tspan x="10" y="714">  │   │ ├── code-point-at@1.1.0 </tspan>
<tspan x="10" y="730">  │   │ └─┬ is-fullwidth-code-point@1.0.0 </tspan>
<tspan x="10" y="746">  │   │   └── number-is-nan@1.0.1 </tspan>
<tspan x="10" y="762">  │   ├── window-size@0.1.4 </tspan>
<tspan x="10" y="778">  │   └── y18n@3.2.1 </tspan>
<tspan x="10" y="794">  ├─┬ steam-client@2.2.2 </tspan>
<tspan x="10" y="810">  │ └─┬ steam-resources@1.0.0  (git://github.com/seishun/node-steam-resources.git#1403939a12ba46\</tspan>
<tspan x="10" y="826">7a4b82c8ccbc279bbcdad43588)</tspan>
<tspan x="10" y="842">  │   ├─┬ bytebuffer@5.0.1 </tspan>
<tspan x="10" y="858">  │   │ └── long@3.2.0 </tspan>
<tspan x="10" y="874">  │   └─┬ protobufjs@4.1.3 </tspan>
<tspan x="10" y="890">  │     ├─┬ ascli@1.0.0 </tspan>
<tspan x="10" y="906">  │     │ ├── colour@0.7.1 </tspan>
<tspan x="10" y="922">  │     │ └── optjs@3.2.2 </tspan>
<tspan x="10" y="938">  │     ├─┬ bytebuffer@4.1.0 </tspan>
<tspan x="10" y="954">  │     │ ├── bufferview@1.0.1 </tspan>
<tspan x="10" y="970">  │     │ └── long@2.4.0 </tspan>
<tspan x="10" y="986">  │     ├─┬ glob@5.0.15 </tspan>
<tspan x="10" y="1002">  │     │ ├─┬ inflight@1.0.5 </tspan>
<tspan x="10" y="1018">  │     │ │ └── wrappy@1.0.2 </tspan>
<tspan x="10" y="1034">  │     │ ├── inherits@2.0.1 </tspan>
<tspan x="10" y="1050">  │     │ ├─┬ minimatch@3.0.3 </tspan>
<tspan x="10" y="1066">  │     │ │ └─┬ brace-expansion@1.1.6 </tspan>
<tspan x="10" y="1082">  │     │ │   ├── balanced-match@0.4.2 </tspan>
<tspan x="10" y="1098">  │     │ │   └── concat-map@0.0.1 </tspan>
<tspan x="10" y="1114">  │     │ ├── once@1.3.3 </tspan>
<tspan x="10" y="1130">  │     │ └── path-is-absolute@1.0.0 </tspan>
<tspan x="10" y="1146">  │     └─┬ yargs@3.32.0 </tspan>
<tspan x="10" y="1162">  │       ├── camelcase@2.1.1 </tspan>
<tspan x="10" y="1178">  │       ├─┬ cliui@3.2.0 </tspan>
<tspan x="10" y="1194">  │       │ ├─┬ strip-ansi@3.0.1 </tspan>
<tspan x="10" y="1210">  │       │ │ └── ansi-regex@2.0.0 </tspan>
<tspan x="10" y="1226">  │       │ └── wrap-ansi@2.0.0 </tspan>
<tspan x="10" y="1242">  │       ├── decamelize@1.2.0 </tspan>
<tspan x="10" y="1258">  │       ├─┬ os-locale@1.4.0 </tspan>
<tspan x="10" y="1274">  │       │ └─┬ lcid@1.0.0 </tspan>
<tspan x="10" y="1290">  │       │   └── invert-kv@1.0.0 </tspan>
<tspan x="10" y="1306">  │       ├─┬ string-width@1.0.1 </tspan>
<tspan x="10" y="1322">  │       │ ├─┬ code-point-at@1.0.0 </tspan>
<tspan x="10" y="1338">  │       │ │ └── number-is-nan@1.0.0 </tspan>
<tspan x="10" y="1354">  │       │ └── is-fullwidth-code-point@1.0.0 </tspan>
<tspan x="10" y="1370">  │       ├── window-size@0.1.4 </tspan>
<tspan x="10" y="1386">  │       └── y18n@3.2.1 </tspan>
<tspan x="10" y="1402">  ├── steam-totp@1.4.0 </tspan>
<tspan x="10" y="1418">  ├─┬ steamid@1.1.0 </tspan>
<tspan x="10" y="1434">  │ └── cuint@0.2.2 </tspan>
<tspan x="10" y="1450">  └─┬ vdf@0.0.2 </tspan>
<tspan x="10" y="1466">    └─┬ util@0.10.3 </tspan>
<tspan x="10" y="1482">      └── inherits@2.0.1</tspan>
</text>
</svg>
